<svg width="60mm" height="60mm" viewBox="0 0 60 60" xmlns="http://www.w3.org/2000/svg"><path style="color:#fff;fill:#fff;stroke-linecap:round;stroke-linejoin:round;-inkscape-stroke:none" d="M54.616 174.544a5 5 0 0 0-3.532 1.472 5 5 0 0 0 .014 7.07l50.213 50a5 5 0 0 0 7.057 0l50.212-50a5 5 0 0 0 .016-7.07 5 5 0 0 0-7.072-.015l-46.684 46.486-46.685-46.486a5 5 0 0 0-3.54-1.457z" transform="matrix(.3783 0 0 .38205 -9.786 -30.544)"/><path style="color:#fff;fill:#fff;fill-opacity:.5;stroke:none;stroke-linecap:round;stroke-linejoin:round;-inkscape-stroke:none" d="M54.616 82.73a5 5 0 0 0-3.532 1.473 5 5 0 0 0 .014 7.07l50.213 50a5 5 0 0 0 7.057 0l50.212-50a5 5 0 0 0 .016-7.07 5 5 0 0 0-7.072-.015l-46.684 46.486-46.685-46.486a5 5 0 0 0-3.54-1.457z" transform="matrix(.3783 0 0 .38205 -9.786 -30.544)"/><path style="color:#fff;fill:#fff;fill-opacity:.75;stroke-linecap:round;stroke-linejoin:round;-inkscape-stroke:none" d="M54.616 128.637a5 5 0 0 0-3.532 1.473 5 5 0 0 0 .014 7.07l50.213 50a5 5 0 0 0 7.057 0l50.212-50a5 5 0 0 0 .016-7.07 5 5 0 0 0-7.072-.016l-46.684 46.487-46.685-46.487a5 5 0 0 0-3.54-1.457z" transform="matrix(.3783 0 0 .38205 -9.786 -30.544)"/></svg>