<svg width="180mm" height="180mm" viewBox="0 0 180 180" xmlns="http://www.w3.org/2000/svg"><path style="fill:#000;stroke-width:.264583" d="M250.96 58.564a20.498 20.498 0 0 0-5.94 14.259l-.408 47.959a47.666 47.666 0 0 0 13.96 34.11l69.2 69.2a19.982 19.982 0 0 0 28.257 0l60.73-60.73a19.982 19.982 0 0 0 0-28.257L347.13 65.476a47.102 47.102 0 0 0-34.108-13.789l-47.854.815a20.498 20.498 0 0 0-14.208 6.062zm11.36 11.088c3.905-3.905 10.236-3.905 14.142 0 3.905 3.906 3.905 10.237 0 14.142-3.906 3.906-10.238 3.906-14.143 0-3.905-3.904-3.905-10.236 0-14.142z" transform="translate(-243.567 -50.721)"/></svg>